HIERARCHY
ROOT Hips
{
  OFFSET -102.467 93.6631 130.069
  CHANNELS 6 Xposition Yposition Zposition Zrotation Xrotation Yrotation
  JOINT LeftUpLeg
  {
    OFFSET 8.64259 1.95398 -2.38835
    CHANNELS 3 Zrotation Xrotation Yrotation
    JOINT LeftLeg
    {
      OFFSET 43.7702 0 0
      CHANNELS 3 Zrotation Xrotation Yrotation
      JOINT LeftFoot
      {
        OFFSET 40.6238 0 0
        CHANNELS 3 Zrotation Xrotation Yrotation
        JOINT LeftToeBase
        {
          OFFSET 12.7242 0 0
          CHANNELS 3 Zrotation Xrotation Yrotation
          End Site
          {
            OFFSET 0 0 0
          }
        }
      }
    }
  }
  JOINT RightUpLeg
  {
    OFFSET -8.2249 1.95398 -2.59336
    CHANNELS 3 Zrotation Xrotation Yrotation
    JOINT RightLeg
    {
      OFFSET 43.5653 0 0
      CHANNELS 3 Zrotation Xrotation Yrotation
      JOINT RightFoot
      {
        OFFSET 40.6238 0 0
        CHANNELS 3 Zrotation Xrotation Yrotation
        JOINT RightToeBase
        {
          OFFSET 12.7242 0 0
          CHANNELS 3 Zrotation Xrotation Yrotation
          End Site
          {
            OFFSET 0 0 0
          }
        }
      }
    }
  }
  JOINT Spine
  {
    OFFSET 0.165834 0.87714 6.61349
    CHANNELS 3 Zrotation Xrotation Yrotation
    JOINT Spine1
    {
      OFFSET 7.38963 1.71661e-005 0
      CHANNELS 3 Zrotation Xrotation Yrotation
      JOINT Spine2
      {
        OFFSET 11.9445 1.14441e-005 0
        CHANNELS 3 Zrotation Xrotation Yrotation
        JOINT Spine3
        {
          OFFSET 14.7254 4.19617e-005 0
          CHANNELS 3 Zrotation Xrotation Yrotation
          JOINT Spine4
          {
            OFFSET 10.9679 0 0
            CHANNELS 3 Zrotation Xrotation Yrotation
            JOINT RightShoulder
            {
              OFFSET 2.46616 -1.6653 3.69651
              CHANNELS 3 Zrotation Xrotation Yrotation
              JOINT RightArm
              {
                OFFSET 13.0012 0 0
                CHANNELS 3 Zrotation Xrotation Yrotation
                JOINT RightForeArm
                {
                  OFFSET 28.7848 1.52588e-005 0
                  CHANNELS 3 Zrotation Xrotation Yrotation
                  JOINT RightHand
                  {
                    OFFSET 26.5688 1.52588e-005 0
                    CHANNELS 3 Zrotation Xrotation Yrotation
                    End Site
                    {
                      OFFSET 0 0 0
                    }
                  }
                }
              }
            }
            JOINT LeftShoulder
            {
              OFFSET 2.38034 -1.29275 -3.7523
              CHANNELS 3 Zrotation Xrotation Yrotation
              JOINT LeftArm
              {
                OFFSET 16.3182 6.10351e-005 0
                CHANNELS 3 Zrotation Xrotation Yrotation
                JOINT LeftForeArm
                {
                  OFFSET 27.0901 0 0
                  CHANNELS 3 Zrotation Xrotation Yrotation
                  JOINT LeftHand
                  {
                    OFFSET 24.5451 1.52588e-005 0
                    CHANNELS 3 Zrotation Xrotation Yrotation
                    End Site
                    {
                      OFFSET 0 0 0
                    }
                  }
                }
              }
            }
            JOINT Neck
            {
              OFFSET 5.0226 -0.0266342 0
              CHANNELS 3 Zrotation Xrotation Yrotation
              JOINT Head
              {
                OFFSET 6.69363 2.86102e-005 0
                CHANNELS 3 Zrotation Xrotation Yrotation
                End Site
                {
                  OFFSET 0 0 0
                }
              }
            }
          }
        }
      }
    }
  }
}
MOTION
Frames:	7
Frame Time:	0.0416667
-24.5532 96.4278 59.2156 104.523 45.1475 79.639 -176.506 -2.26052 86.8537 -28.5513 22.4258 3.28688 65.0198 7.78956 13.6334 44.8254 -1.62557 1.23395 171.641 18.3186 84.6511 -23.8457 2.50206 2.12092 55.7408 7.51581 16.2692 27.9532 0.77051 3.73503 -0.564903 7.94107 -89.8189 10.9941 -1.04054 0.459738 -0.676555 -1.01927 0.505082 -23.215 -1.1306 0.125719 -3.20231 -1.13059 0.125721 98.9364 -62.6468 -86.5121 23.2843 -8.51434 0.685048 -4.12342 -8.95902 -19.206 -8.09962 -0.661013 4.57813 -83.6526 -54.2166 88.4675 -14.4541 10.727 -30.9448 11.5752 27.9868 -25.6028 1.93476 -0.119257 -5.13377 -16.3927 -0.355294 -2.00212 -30.659 -0.670757 1.27443 
-18.528 96.4162 55.5317 104.223 46.7538 78.0464 -176.659 -7.20587 86.9868 -26.0838 25.0271 3.67349 63.4311 8.04341 13.7229 50.2945 -1.64823 3.45667 175.528 16.1083 82.5362 -7.85204 10.9369 -1.21345 56.5687 9.87804 20.1113 22.2299 1.5508 0.281102 -0.577569 7.8691 -89.7527 11.1384 -1.03471 0.593054 -0.532289 -1.00761 0.638011 -23.0705 -1.16512 0.254626 -3.05782 -1.16513 0.254618 98.7507 -62.5733 -86.765 23.4265 -8.31575 0.431119 -4.3309 -9.60974 -18.3842 -6.21951 -0.467482 3.88189 -83.8099 -54.6777 88.2857 -13.4616 11.5022 -31.2661 12.8947 27.6708 -28.1787 1.89546 -0.12456 -5.28264 -17.0896 -0.87333 -1.62721 -30.142 -1.02029 0.503256 
-11.5901 95.5255 51.41 103.762 48.1994 77.7472 -177.735 -8.41406 87.5332 -31.4976 25.481 5.41173 63.5257 7.05497 10.4758 56.0246 -1.39801 5.88656 174.18 16.9825 81.8065 -12.206 7.21989 0.0498315 53.2471 10.218 16.1733 26.732 0.421025 -0.429846 -0.568158 7.71766 -89.8854 11.439 -1.07685 0.337316 -0.231598 -1.06095 0.384381 -22.7702 -1.12845 -0.00195862 -2.75755 -1.12844 -0.00196133 99.0644 -62.6943 -86.338 22.7066 -8.11089 0.09136 -4.25908 -10.1406 -17.4468 -5.96218 -0.434533 3.59629 -83.7051 -56.3017 88.5901 -14.7361 11.2262 -28.1156 10.0771 29.4988 -23.4126 1.76466 -0.128995 -5.42006 -17.2534 -1.12029 -0.941769 -30.3957 -1.22104 0.297399 
-4.661 95.3358 47.5415 103.774 49.0421 79.7678 -177.264 -6.50067 93.7684 -39.9586 20.4256 6.18436 57.6839 0.153302 -1.55199 59.1146 -3.73675 -0.281435 174.024 18.3475 84.3124 -22.7886 2.09752 1.29961 52.7964 10.4518 11.0962 23.506 1.00777 -2.16971 -0.540169 7.58208 -90.3531 11.7098 -1.24 -0.572219 0.0393438 -1.26396 -0.517089 -22.4985 -1.0107 -0.918443 -2.48586 -1.01071 -0.918453 99.2679 -62.0562 -86.0929 21.8168 -7.84279 -0.192956 -4.1733 -9.85268 -17.3924 -6.03534 -0.469683 4.25176 -83.7278 -58.2199 88.7357 -18.3449 8.88889 -21.995 2.98283 32.2614 -10.5591 2.43253 -0.0894115 -4.40929 -17.3367 -1.37642 -0.537373 -29.9847 -1.54379 0.572568 
1.15641 95.2271 44.6508 104.74 51.7501 80.2628 -179.303 3.29399 94.2329 -56.8057 18.1086 6.11645 49.8604 -1.9361 4.88363 49.0383 -2.10867 1.14838 172.891 17.8414 86.0828 -31.7413 4.40428 2.80509 60.0089 9.28184 10.2136 22.9331 1.31295 -0.560457 -0.698827 7.61466 -90.6606 11.6355 -1.69966 -1.13984 -0.0348203 -1.74816 -1.06394 -22.5716 -1.27856 -1.59795 -2.55892 -1.27853 -1.59794 99.7612 -61.4324 -85.449 20.1986 -7.86557 -1.54828 -4.49771 -8.65401 -19.2429 -5.5 -0.38484 3.27943 -84.7812 -57.988 87.2552 -23.3455 5.98482 -16.4804 -2.25489 35.4985 -0.00411789 -1.47545 -0.0844222 -3.58728 -15.7039 -2.2134 -3.01511 -28.1951 -2.43459 0.913353 
6.04073 95.632 42.1516 106.138 50.2735 79.5903 -179.621 11.2156 93.4615 -63.7227 13.0368 4.98781 51.5442 -0.206254 5.77658 47.2074 -2.89282 -3.01031 173.199 14.6511 87.7066 -34.5478 4.71317 2.49305 63.6263 8.15318 10.303 24.3363 1.05223 0.0894409 -0.38625 7.90819 -90.6819 11.05 -1.08507 -1.25242 -0.621094 -1.13912 -1.20346 -23.1529 -0.658547 -1.52057 -3.14021 -0.658538 -1.52058 99.4609 -62.0499 -85.8325 17.5209 -8.03558 -4.40241 -3.62266 -5.76632 -22.1662 -10.1297 -0.810104 4.30513 -84.7251 -57.1511 87.2432 -25.6643 5.28587 -12.9914 -2.56657 44.7914 0.0238931 -9.84759 -0.0439257 -5.27634 -15.1752 -2.64286 -6.63751 -26.1889 -2.92302 1.49971 
10.0234 96.2156 40.0215 104.88 45.6947 80.2186 -178.322 15.2282 91.0762 -55.1191 11.8896 3.51978 54.8455 2.13756 6.70389 52.7249 -1.91952 2.89725 173.634 12.6171 88.1703 -35.2891 3.04534 1.84376 65.8813 7.04018 11.4233 23.7792 1.39661 1.88941 0.06275 8.05392 -90.6419 10.7636 -0.171115 -1.26056 -0.907983 -0.226407 -1.25182 -23.4384 0.215632 -1.25372 -3.42573 0.215629 -1.25372 98.7497 -60.2994 -86.8861 16.8076 -8.17692 -7.30908 -3.74431 -4.64762 -24.9467 -11.6864 -0.897437 3.84286 -84.2958 -58.5096 87.979 -25.4293 6.18909 -7.55994 -2.93967 38.4441 -0.465464 -10.1048 -0.0758377 -4.67918 -14.7393 -2.33146 -5.59041 -25.6935 -2.58184 1.48221 
